<svg xmlns="http://www.w3.org/2000/svg" aria-hidden="true" style="position:absolute;width:0;height:0;overflow:hidden">
  <defs>
    <symbol id="icon-chocolate" viewBox="0 0 32 32">
      <path fill="#fcf1e0" d="M5.277 21.409 16.054 3.985l.64-.674 8.236 5.491.056 3.314 2.01 3.28-8.88 14.077L5.277 21.41z" style="fill:var(--color1, #fcf1e0)"/>
      <path fill="none" stroke="#fd9222" stroke-linecap="round" stroke-linejoin="round" stroke-width="2.667" d="M21.635 23.88 7.45 15.016m3.911-6.417 14.186 8.864M10.63 25.864l11.736-19.25m4.81 8.175c-3.04-1.899-4.234-3.384-2.278-6.592l-9.626-6.015-11.736 19.25 14.185 8.864 9.454-15.507z" style="stroke:var(--color2, #fd9222)"/>
    </symbol>
   <symbol id="icon-menu" viewBox="0 0 32 32">
      <title>menu</title> 
      <path d="M3.5 14H24.5M3.5 7H24.5M3.5 21H24.5" stroke="#111111" stroke-width="2" stroke-linecap="round" stroke-linejoin="round"/>
  </symbol>
    <symbol id="icon-facebook" viewBox="0 0 32 32">
      <path d="M19.52 4.64h.96v3.6h-1.2c-.48 0-.96 0-1.2.24s-.24.48-.24 1.04v1.28h2.64v3.04h-2.64v13.2h-4.08V13.76H11.6v-3.04h2.16V9.68c0-1.76.24-3.04.72-3.6.72-1.04 2.16-1.52 4.32-1.52.24.08.48.08.72.08z"/>
    </symbol>
    <symbol id="icon-instagram" viewBox="0 0 32 32">
      <path d="M28.718 10.756a9.264 9.264 0 0 0-.596-3.145 6.547 6.547 0 0 0-3.743-3.737 9.42 9.42 0 0 0-3.108-.596c-1.367-.061-1.801-.078-5.273-.078s-3.916 0-5.274.078a9.418 9.418 0 0 0-3.106.596 6.541 6.541 0 0 0-3.743 3.737 9.288 9.288 0 0 0-.596 3.101c-.061 1.367-.08 1.8-.08 5.265s0 3.909.08 5.265a9.335 9.335 0 0 0 .596 3.104 6.548 6.548 0 0 0 3.744 3.735 9.37 9.37 0 0 0 3.106.639c1.369.061 1.803.079 5.274.079s3.917 0 5.274-.079a9.362 9.362 0 0 0 3.108-.595 6.555 6.555 0 0 0 3.743-3.737 9.346 9.346 0 0 0 .596-3.104c.061-1.365.08-1.798.08-5.265-.003-3.466-.003-3.906-.082-5.264zM15.99 22.531c-3.631 0-6.572-2.936-6.572-6.561s2.941-6.561 6.572-6.561c3.628 0 6.572 2.936 6.572 6.561s-2.944 6.561-6.572 6.561zm6.834-11.835a1.53 1.53 0 1 1 0-3.06 1.53 1.53 0 1 1 0 3.06z"/>
      <path d="M15.992 19.976a4.004 4.004 0 1 0 0-8.009 4.004 4.004 0 0 0 0 8.009z"/>
    </symbol>
    <symbol id="icon-twitter" viewBox="0 0 32 32">
      <path d="M30.667 7.898c-.992.435-2.048.723-3.15.863a5.44 5.44 0 0 0 2.405-3.022 10.916 10.916 0 0 1-3.467 1.323 5.465 5.465 0 0 0-9.456 3.738c0 .433.037.85.127 1.247-4.545-.222-8.567-2.4-11.268-5.718a5.5 5.5 0 0 0-.748 2.763c0 1.893.975 3.572 2.428 4.543a5.412 5.412 0 0 1-2.47-.673v.06a5.493 5.493 0 0 0 4.38 5.372c-.445.122-.93.18-1.433.18-.35 0-.703-.02-1.035-.093.708 2.165 2.718 3.757 5.108 3.808a10.985 10.985 0 0 1-6.778 2.332c-.448 0-.878-.02-1.308-.075a15.39 15.39 0 0 0 8.387 2.453c10.06 0 15.56-8.333 15.56-15.557 0-.242-.008-.475-.02-.707a10.91 10.91 0 0 0 2.74-2.838z"/>
    </symbol>
    <symbol id="icon-fangle-small" viewBox="0 0 32 32">
      <path fill="#fd9222" d="M16.947 17.867a1.334 1.334 0 0 1-1.894 0l-6.107-6.12a1.334 1.334 0 1 0-1.894 1.88l6.12 6.12a4.001 4.001 0 0 0 5.654 0l6.12-6.12a1.337 1.337 0 0 0-.434-2.172 1.331 1.331 0 0 0-1.46.292l-6.107 6.12z" style="fill:var(--color2, #fd9222)"/>
    </symbol>
    <symbol id="icon-chocolate2" viewBox="0 0 32 32">
      <path fill="#111" d="m13.822 2.413 7.527 7.536.08-.08a.856.856 0 0 1 1.184-.013l.873.873c.305.305.315.77.083 1.094l-.004.007-.143.192 6.16 6.16c.55.55.55 1.43 0 1.98l-9.43 9.43c-.55.55-1.43.55-1.98 0l-4.447-4.447a.853.853 0 0 1-.612.317.842.842 0 0 1-.644-.246l-2.6-2.6a.856.856 0 0 1-.013-1.184l.006-.007.077-.076-7.527-7.527c-.55-.55-.55-1.43 0-1.98l9.43-9.43c.55-.55 1.43-.55 1.98 0v.001zm6.582 8.48-1.756-1.755a.59.59 0 0 0-.85 0l-3.58 3.58a.602.602 0 0 0 0 .86l1.749 1.749.61-.61-1.565-1.565 3.21-3.22 1.569 1.574.613-.613zm-5.075 5.073-1.754-1.754a.59.59 0 0 0-.85 0l-3.59 3.59c-.24.23-.24.61 0 .85l1.752 1.752.616-.616-1.57-1.564 3.22-3.21 1.564 1.563.612-.611zM8.822 8.194l3.58 3.58c.24.24.62.24.85-.01l3.58-3.58a.57.57 0 0 0 .18-.42h.01c0-.15-.06-.31-.18-.43l-3.58-3.58a.602.602 0 0 0-.86 0l-3.58 3.59c-.24.23-.24.61 0 .85zm-5.07 5.07 3.58 3.58c.24.24.62.24.85 0l3.58-3.58a.578.578 0 0 0 .18-.43h.01c0-.16-.06-.31-.18-.43l-3.58-3.58a.59.59 0 0 0-.85 0l-3.59 3.59c-.24.23-.24.61 0 .85zm6.933 8.753 2.362 2.363 9.636-13.04-.655-.655-11.343 11.332z" style="fill:var(--color3, #111)"/>
      <path fill="#fd9222" d="m13.822 2.413 7.527 7.536.08-.08a.856.856 0 0 1 1.184-.013l.873.873c.305.305.315.77.083 1.094l-.004.007-.143.192 6.16 6.16c.55.55.55 1.43 0 1.98l-9.43 9.43c-.55.55-1.43.55-1.98 0l-4.447-4.447a.853.853 0 0 1-.612.317.842.842 0 0 1-.644-.246l-2.6-2.6a.856.856 0 0 1-.013-1.184l.006-.007.077-.076-7.527-7.527c-.55-.55-.55-1.43 0-1.98l9.43-9.43c.55-.55 1.43-.55 1.98 0v.001zm6.582 8.48-1.756-1.755a.59.59 0 0 0-.85 0l-3.58 3.58a.602.602 0 0 0 0 .86l1.749 1.749.61-.61-1.565-1.565 3.21-3.22 1.569 1.574.613-.613zm-5.075 5.073-1.754-1.754a.59.59 0 0 0-.85 0l-3.59 3.59c-.24.23-.24.61 0 .85l1.752 1.752.616-.616-1.57-1.564 3.22-3.21 1.564 1.563.612-.611zM8.822 8.194l3.58 3.58c.24.24.62.24.85-.01l3.58-3.58a.57.57 0 0 0 .18-.42h.01c0-.15-.06-.31-.18-.43l-3.58-3.58a.602.602 0 0 0-.86 0l-3.58 3.59c-.24.23-.24.61 0 .85zm-5.07 5.07 3.58 3.58c.24.24.62.24.85 0l3.58-3.58a.578.578 0 0 0 .18-.43h.01c0-.16-.06-.31-.18-.43l-3.58-3.58a.59.59 0 0 0-.85 0l-3.59 3.59c-.24.23-.24.61 0 .85zm6.933 8.753 2.362 2.363 9.636-13.04-.655-.655-11.343 11.332z" style="fill:var(--color2, #fd9222)"/>
    </symbol>
    <symbol id="icon-dollar" viewBox="0 0 32 32">
      <path fill="#fd9222" d="M16 .762C7.619.762.762 7.619.762 16S7.619 31.238 16 31.238 31.238 24.381 31.238 16 24.381.762 16 .762zm0 27.428C9.295 28.19 3.81 22.704 3.81 16S9.296 3.809 16 3.809c6.705 0 12.191 5.486 12.191 12.191S22.705 28.19 16 28.19z" style="fill:var(--color2, #fd9222)"/>
      <path fill="#fd9222" d="M17.981 14.476h-3.962c-.762 0-1.371-.61-1.371-1.371s.61-1.371 1.371-1.371h5.638c.914 0 1.524-.61 1.524-1.524s-.61-1.524-1.524-1.524h-2.133V7.315c0-.914-.61-1.524-1.524-1.524s-1.524.61-1.524 1.524v1.371h-.457c-2.438 0-4.419 1.981-4.419 4.419s1.981 4.419 4.419 4.419h3.809c.762 0 1.371.61 1.371 1.371s-.61 1.371-1.371 1.371H12.19c-.914 0-1.524.61-1.524 1.524s.61 1.524 1.524 1.524h2.286v1.371c0 .914.61 1.524 1.524 1.524s1.524-.61 1.524-1.524v-1.371h.457c2.438 0 4.419-1.981 4.419-4.419s-1.981-4.419-4.419-4.419z" style="fill:var(--color2, #fd9222)"/>
    </symbol>
    <symbol id="icon-spoon" viewBox="0 0 32 32">
      <path fill="#fd9222" d="M15.451 14.106a5.154 5.154 0 0 1-1.177-3.282c0-4.324 5.181-8.642 10.362-8.642a5.183 5.183 0 0 1 5.181 5.182c0 5.182-4.318 10.364-8.646 10.364a5.151 5.151 0 0 1-3.281-1.177L5.132 29.312a1.73 1.73 0 0 1-2.445-2.445l12.764-12.761z" style="fill:var(--color2, #fd9222)"/>
    </symbol>
    <symbol id="icon-arrow" viewBox="0 0 32 32">
       <title>arrow</title>
       <path fill="none" stroke="#fafafa" style="stroke: var(--color1, #fafafa)" stroke-linejoin="round" stroke-linecap="round" stroke-miterlimit="4" stroke-width="1.3333" d="M9.143 16h13.714M22.857 16l-3.429-3.429M22.857 16l-3.429 3.429"></path>
       <path fill="none" stroke="#fafafa" style="stroke: var(--color1, #fafafa)" stroke-linejoin="round" stroke-linecap="round" stroke-miterlimit="4" stroke-width="1.3333" d="M16 30.857c8.205 0 14.857-6.652 14.857-14.857s-6.652-14.857-14.857-14.857c-8.205 0-14.857 6.652-14.857 14.857s6.652 14.857 14.857 14.857z"></path>
    </symbol>
    <symbol id="icon-arrow-orange" viewBox="0 0 32 32">
      <title>arrow-orange</title>
       <path fill="none" stroke="#fd9222" style="stroke: var(--color1, #fd9222)" stroke-linejoin="round" stroke-linecap="round" stroke-miterlimit="4" stroke-width="1.3333" d="M9.143 16h13.714M22.857 16l-3.429-3.429M22.857 16l-3.429 3.429"></path>
       <path fill="none" stroke="#fd9222" style="stroke: var(--color1, #fd9222)" stroke-linejoin="round" stroke-linecap="round" stroke-miterlimit="4" stroke-width="1.3333" d="M16 30.857c8.205 0 14.857-6.652 14.857-14.857s-6.652-14.857-14.857-14.857c-8.205 0-14.857 6.652-14.857 14.857s6.652 14.857 14.857 14.857z"></path>
     </symbol>
    <symbol id="icon-play" viewBox="0 0 32 32">
      <path fill="#f5f4f4" d="M10.909 24V8.727l14.545 7.636-14.545 7.636z" style="fill:var(--color5, #f5f4f4)"/>
      <path fill="none" stroke="#fff" stroke-width=".727" d="M31.636 16c0 8.636-7.001 15.636-15.636 15.636S.364 24.635.364 16C.364 7.364 7.365.364 16 .364S31.636 7.365 31.636 16z" style="stroke:var(--color6, #fff)"/>
    </symbol>
    <symbol id="icon-exit" viewBox="0 0 32 32">
      <title>exit</title>
      <path d="M19.8332 8.16675L8.1665 19.8334M8.1665 8.16675L19.8332 19.8334" stroke="white" stroke-width="2" stroke-linecap="round" stroke-linejoin="round"/>
    </symbol>
    <symbol id="icon-property-modal" viewBox="0 0 32 32">
      <title>property-modal</title>
        <path d="M12.636 31.213c1.395 0 2.449-0.536 3.163-1.607l15.448-23.28c0.257-0.379 0.446-0.753 0.569-1.121 0.123-0.379 0.184-0.742 0.184-1.088 0-0.96-0.335-1.752-1.004-2.377-0.658-0.636-1.473-0.954-2.444-0.954-0.669 0-1.238 0.134-1.707 0.402-0.457 0.257-0.893 0.703-1.305 1.339l-12.971 20.368-6.494-7.782c-0.703-0.815-1.584-1.222-2.644-1.222-0.993 0-1.813 0.318-2.46 0.954s-0.971 1.434-0.971 2.393c0 0.435 0.067 0.848 0.201 1.238 0.145 0.379 0.407 0.775 0.787 1.188l8.619 10.159c0.792 0.926 1.802 1.389 3.029 1.389z"></path>
    </symbol>
    <symbol id="icon-checkmark" viewBox="0 0 32 32">
     <title>Checkmark</title>
      <path stroke-linejoin="miter" stroke-linecap="butt" stroke-miterlimit="4" stroke-width="1.6" d="M9.6 0.8h12.8c4.86 0 8.8 3.94 8.8 8.8v12.8c0 4.86-3.94 8.8-8.8 8.8h-12.8c-4.86 0-8.8-3.94-8.8-8.8v-12.8c0-4.86 3.94-8.8 8.8-8.8z"></path>
    </symbol>
    <symbol id="icon-mail" viewBox="0 0 24 24">
       <title>mail</title>
       <path d="M3 7.921l8.427 5.899c0.34 0.235 0.795 0.246 1.147 0l8.426-5.899v10.079c0 0.272-0.11 0.521-0.295 0.705s-0.433 0.295-0.705 0.295h-16c-0.272 0-0.521-0.11-0.705-0.295s-0.295-0.433-0.295-0.705zM1 5.983c0 0.010 0 0.020 0 0.030v11.987c0 0.828 0.34 1.579 0.88 2.12s1.292 0.88 2.12 0.88h16c0.828 0 1.579-0.34 2.12-0.88s0.88-1.292 0.88-2.12v-11.988c0-0.010 0-0.020 0-0.030-0.005-0.821-0.343-1.565-0.88-2.102-0.541-0.54-1.292-0.88-2.12-0.88h-16c-0.828 0-1.579 0.34-2.12 0.88-0.537 0.537-0.875 1.281-0.88 2.103zM20.894 5.554l-8.894 6.225-8.894-6.225c0.048-0.096 0.112-0.183 0.188-0.259 0.185-0.185 0.434-0.295 0.706-0.295h16c0.272 0 0.521 0.11 0.705 0.295 0.076 0.076 0.14 0.164 0.188 0.259z"></path>
    </symbol>
    <symbol id="icon-phone" viewBox="0 0 24 24">
       <title>phone</title>
        <path d="M23 16.92c0.016-0.714-0.236-1.404-0.673-1.943-0.46-0.566-1.129-0.967-1.925-1.080-0.8-0.098-1.695-0.314-2.586-0.646-0.433-0.159-0.893-0.218-1.344-0.174-0.663 0.064-1.307 0.349-1.819 0.855l-0.72 0.72c-1.77-1.117-3.36-2.667-4.583-4.589l0.726-0.726c0.322-0.33 0.563-0.726 0.707-1.156 0.212-0.632 0.214-1.336-0.039-2.011-0.289-0.753-0.518-1.644-0.644-2.595-0.104-0.714-0.456-1.345-0.963-1.804-0.539-0.486-1.256-0.779-2.027-0.771h-2.996c-0.088 0-0.182 0.004-0.273 0.012-0.824 0.075-1.542 0.478-2.033 1.066s-0.758 1.367-0.683 2.199c0.3 3.076 1.365 6.243 3.216 9.102 1.502 2.413 3.648 4.623 6.298 6.306 2.568 1.697 5.684 2.862 9.086 3.231 0.092 0.009 0.191 0.013 0.288 0.013 0.828-0.003 1.578-0.343 2.118-0.887s0.873-1.297 0.87-2.121zM21 16.92v3c0.001 0.28-0.109 0.53-0.29 0.712s-0.429 0.295-0.706 0.296c-3.149-0.336-5.961-1.391-8.263-2.912-2.428-1.543-4.359-3.537-5.702-5.694-1.697-2.62-2.655-5.481-2.924-8.238-0.024-0.268 0.064-0.526 0.229-0.724s0.403-0.33 0.678-0.355l3.088-0.005c0.271-0.003 0.507 0.094 0.687 0.256 0.17 0.154 0.288 0.366 0.323 0.608 0.142 1.072 0.408 2.117 0.757 3.025 0.081 0.216 0.080 0.447 0.010 0.658-0.049 0.145-0.131 0.281-0.242 0.395l-1.262 1.261c-0.324 0.324-0.379 0.814-0.162 1.201 1.584 2.785 3.839 4.957 6.381 6.378 0.397 0.222 0.882 0.144 1.195-0.166l1.27-1.27c0.166-0.164 0.377-0.257 0.598-0.279 0.152-0.015 0.31 0.005 0.459 0.060 1.022 0.381 2.070 0.636 3.034 0.754 0.241 0.034 0.462 0.166 0.615 0.355 0.147 0.181 0.231 0.412 0.226 0.682z"></path>
    </symbol>
    <symbol id="icon-user" viewBox="0 0 24 24">
        <title>user</title>
        <path d="M21 21v-2c0-1.38-0.561-2.632-1.464-3.536s-2.156-1.464-3.536-1.464h-8c-1.38 0-2.632 0.561-3.536 1.464s-1.464 2.156-1.464 3.536v2c0 0.552 0.448 1 1 1s1-0.448 1-1v-2c0-0.829 0.335-1.577 0.879-2.121s1.292-0.879 2.121-0.879h8c0.829 0 1.577 0.335 2.121 0.879s0.879 1.292 0.879 2.121v2c0 0.552 0.448 1 1 1s1-0.448 1-1zM17 7c0-1.38-0.561-2.632-1.464-3.536s-2.156-1.464-3.536-1.464-2.632 0.561-3.536 1.464-1.464 2.156-1.464 3.536 0.561 2.632 1.464 3.536 2.156 1.464 3.536 1.464 2.632-0.561 3.536-1.464 1.464-2.156 1.464-3.536zM15 7c0 0.829-0.335 1.577-0.879 2.121s-1.292 0.879-2.121 0.879-1.577-0.335-2.121-0.879-0.879-1.292-0.879-2.121 0.335-1.577 0.879-2.121 1.292-0.879 2.121-0.879 1.577 0.335 2.121 0.879 0.879 1.292 0.879 2.121z"></path>
    </symbol>
    <symbol id="icon-xclose" viewBox="0 0 32 32">
       <title>xclose</title>
        <path d="M18 6L6 18" stroke="#111111" stroke-width="2" stroke-linecap="round" stroke-linejoin="round"/>
        <path d="M6 6L18 18" stroke="#111111" stroke-width="2" stroke-linecap="round" stroke-linejoin="round"/>
    </symbol>
    <symbol id="icon-error" viewBox="0 0 32 32">
        <title>error</title>
        <path fill="#e74a3b" style="fill: var(--color1, #e74a3b)" d="M14.667 20h2.667v2.667h-2.667v-2.667zM14.667 9.333h2.667v8h-2.667v-8zM15.987 2.667c-7.36 0-13.32 5.973-13.32 13.333s5.96 13.333 13.32 13.333c7.373 0 13.347-5.973 13.347-13.333s-5.973-13.333-13.347-13.333zM16 26.667c-5.893 0-10.667-4.773-10.667-10.667s4.773-10.667 10.667-10.667c5.893 0 10.667 4.773 10.667 10.667s-4.773 10.667-10.667 10.667z"></path>
     </symbol>
  </defs>
</svg>
